<svg width="8156" height="7735" xmlns="http://www.w3.org/2000/svg">
  <rect x="0" y="0" width="8156" height="7735" fill="#68217a"/>
  <g stroke="#fbff00">

    <line x1="100" y1="100" x2="100" y2="7635" />
    <line x1="1426" y1="100" x2="1426" y2="7635" />
    <line x1="2752" y1="100" x2="2752" y2="7635" />
    <line x1="4078" y1="100" x2="4078" y2="7635" />
    <line x1="5404" y1="100" x2="5404" y2="7635" />
    <line x1="6730" y1="100" x2="6730" y2="7635" />
    <line x1="8056" y1="100" x2="8056" y2="7635" />
    <line x1="100" y1="100" x2="8056" y2="100" />
    <line x1="100" y1="1607" x2="8056" y2="1607" />
    <line x1="100" y1="3114" x2="8056" y2="3114" />
    <line x1="100" y1="4621" x2="8056" y2="4621" />
    <line x1="100" y1="6128" x2="8056" y2="6128" />
    <line x1="100" y1="7635" x2="8056" y2="7635" />

    <path id="Y" d="m1326 199-473 840v467h-180v-471l-473-836h215l260 478 96 192 88-174 263-496z" />
    <circle cx="1326" cy="199" r="50" fill="red"/>
    <path id="G" d="m2532 423q-73-39-150-60.5t-168-21.5q-104 0-185 37t-136.5 104.5-85 162.5-29.5 210q0 120 24 215t75 161 130.5 101 190.5 35q19 0 41-2t44-5.5 42.5-8.5 36.5-11v-416h-267v-147h443v668q-41 19-86.5 34t-93 25-94.5 15-91 5q-134 0-241.5-42t-183-124.5-116-205.5-40.5-285q0-161 45-288.5t126.5-216 196-135 252.5-46.5q88 0 167.5 15.5t152.5 49.5z" />
    <circle cx="2532" cy="423" r="50" fill="red"/>
    <path id="F" d="m3794 351h-555v424h526v149h-526v582h-182v-1307h737z" />
    <circle cx="3794" cy="351" r="50" fill="red"/>
    <path id="K" d="m5225 1506h-224l-489-641v641h-178v-1307h178v607l479-607h211l-516 621z" />
    <circle cx="5225" cy="1506" r="50" fill="red"/>
    <path id="H" d="m6520 1506h-178v-600h-549v600h-178v-1307h178v553h549v-553h178z" />
    <circle cx="6520" cy="1506" r="50" fill="red"/>
    <path id="O" d="m7901 844q0 176-41.5 304t-112 211.5-165 124-199.5 40.5q-126 0-219.5-45.5t-155-131.5-91.5-209.5-30-278.5q0-174 41-302t111.5-211.5 164.5-124 199-40.5q126 0 219.5 46t155.5 131.5 92.5 208.5 30.5 277zm-185 13q0-115-17.5-210.5t-56.5-164.5-100.5-107-148.5-38q-84 0-144.5 40.5t-99.5 110-58 163-19 198.5q0 116 18 211.5t56.5 164 99.5 106.5 147 38q84 0 145-40.5t100.5-110 58.5-162.5 19-199z" />
    <circle cx="7901" cy="844" r="50" fill="red"/>
    <path id="U" d="m1218 2558q0 108-30.5 195.5t-89.5 149-144.5 95-196.5 33.5q-122 0-207-32t-138.5-90.5-78-140.5-24.5-183v-879h178v865q0 77 14.5 135t47.5 97 85.5 59 128.5 20q142 0 209.5-82t67.5-231v-863h178z" />
    <circle cx="1218" cy="2558" r="50" fill="red"/>
    <path id="S" d="m2523 2659q0 93-38 163t-106 116.5-163.5 69.5-210.5 23q-52 0-103.5-4t-99-10-89.5-14-76-17v-172q75 28 168.5 44t212.5 16q86 0 146.5-13.5t99-40 56-64.5 17.5-87q0-53-29.5-90.5t-77.5-67-109.5-54-125.5-50.5-125.5-56.5-109.5-72-77.5-97.5-29.5-133q0-67 28-132t87-115.5 151.5-81.5 220.5-31q33 0 71.5 3t78 8.5 78 12.5 71.5 15v160q-77-22-154-33.5t-149-11.5q-153 0-225 51t-72 137q0 53 29.5 91t77.5 68 109.5 54.5 125.5 50.5 125.5 57 109.5 73.5 77.5 99.5 29.5 135z" />
    <circle cx="2523" cy="2659" r="50" fill="red"/>
    <path id="D" d="m3905 2345q0 94-14.5 180t-46.5 160-83 134.5-125 103.5-172 66.5-223 23.5h-280v-1307h337q306 0 456.5 157.5t150.5 481.5zm-187 13q0-139-26-235t-79-155-133-85.5-188-26.5h-153v1003h133q446 0 446-501z" />
    <circle cx="3905" cy="2345" r="50" fill="red"/>
    <path id="Q" d="m4645 3025q-104-15-181-66t-128-134.5-76-197-25-251.5q0-178 41-308t111.5-214.5 164.5-125 199-40.5q126 0 219.5 45.5t155.5 131 92.5 207 30.5 273.5q0 160-34 280.5t-93 204.5-139 132-172 63q15 88 70 141.5t155 53.5q48 0 94.5-16t94.5-54l79 123q-66 54-136 77t-144 23q-80 0-147-22t-116.5-65.5-79.5-109-36-151.5zm419-659q0-116-17.5-211.5t-56.5-164-100.5-106.5-148.5-38q-84 0-144.5 40t-99.5 108.5-58 160-19 194.5q0 119 18 215.5t56.5 165.5 99.5 106.5 147 37.5q84 0 145-40t100.5-109 58.5-161.5 19-197.5z" />
    <circle cx="4645" cy="3025" r="50" fill="red"/>
    <path id="E" d="m6448 3013h-743v-1307h743v150h-565v405h543v150h-543v450h565z" />
    <circle cx="6448" cy="3013" r="50" fill="red"/>
    <path id="L" d="m7815 3013h-752v-1307h181v1155h571z" />
    <circle cx="7815" cy="3013" r="50" fill="red"/>
    <path id="M" d="m1277 4520h-174l-26-815-11-313-61 182-193 520h-123l-184-500-61-202-4 327-23 801h-168l64-1307h211l176 492 57 166 55-166 185-492h217z" />
    <circle cx="1277" cy="4520" r="50" fill="red"/>
    <path id="P" d="m2542 3613q0 80-30 158.5t-93 140.5-161 100.5-234 38.5h-162v469h-178v-1307h368q97 0 186 21.5t156.5 69.5 107.5 124 40 185zm-185 8q0-126-82.5-193t-230.5-67h-182v538h166q158 0 243.5-69t85.5-209z" />
    <circle cx="2542" cy="3613" r="50" fill="red"/>
    <path id="W" d="m3933 3213-88 1307h-231l-162-465-45-149-47 161-150 453h-223l-90-1307h168l51 889 15 244 63-207 158-485h123l182 520 61 172 4-180 52-953z" />
    <circle cx="3933" cy="3213" r="50" fill="red"/>
    <path id="B" d="m5194 4129q0 94-36.5 166.5t-104 122.5-163 76-212.5 26h-342v-1307h374q437 0 437 318 0 106-50.5 182t-164.5 113q53 10 100.5 34t83.5 62 57 90 21 117zm-232-574q0-40-12-75.5t-42-61-81-40.5-129-15h-184v409h178q61 0 110.5-13t85-40 55-67.5 19.5-96.5zm43 580q0-50-21-90t-61-67.5-97.5-42.5-129.5-15h-182v450h188q153 0 228-57t75-178z" />
    <circle cx="5194" cy="4129" r="50" fill="red"/>
    <path id="A" d="m6620 4520h-194l-91-285h-544l-92 285h-185l434-1307h244zm-336-444-221-699-221 699z" />
    <circle cx="6620" cy="4520" r="50" fill="red"/>
    <path id="X" d="m7932 4520h-225l-318-528-319 528h-222l435-668-400-639h211l299 492 301-492h205l-401 631z" />
    <circle cx="7932" cy="4520" r="50" fill="red"/>
    <path id="N" d="m1208 6027h-232l-381-815-110-262v1077h-166v-1307h229l363 772 131 299v-1071h166z" />
    <circle cx="1208" cy="6027" r="50" fill="red"/>
    <path id="T" d="m2566 4872h-387v1155h-180v-1155h-387v-152h954z" />
    <circle cx="2566" cy="4872" r="50" fill="red"/>
    <path id="I" d="m3325 4870h-301v-150h782v150h-301v1005h301v152h-782v-152h301z" />
    <circle cx="3325" cy="4870" r="50" fill="red"/>
    <path id="Z" d="m5179 4860-667 1001h680v166h-903v-133l671-1012h-653v-162h872z" />
    <circle cx="5179" cy="4860" r="50" fill="red"/>
    <path id="V" d="m6626 4720-444 1307h-240l-434-1307h201l282 881 80 258 82-258 283-881z" />
    <circle cx="6626" cy="4720" r="50" fill="red"/>
    <path id="J" d="m7707 4720v908q0 84-25 159.5t-76 131.5-128 89-181 33q-39 0-79.5-5.5t-78-15-70.5-23-57-29.5v-179q62 45 137.5 71t149.5 26q109 0 168-66.5t59-191.5v-754h-497v-154z" />
    <circle cx="7707" cy="4720" r="50" fill="red"/>
    <path id="C" d="m1195 7485q-157 65-329 65-277 0-425.5-165.5t-148.5-489.5q0-157 41-284t117-215.5 184-136.5 242-48q91 0 169 15.5t150 47.5v175q-71-39-147-59.5t-166-20.5q-92 0-166.5 34.5t-126.5 100-80 160-28 215.5q0 254 103 383t302 129q84 0 161-19.5t148-54.5z" />
    <circle cx="1195" cy="7485" r="50" fill="red"/>
    <path id="R" d="m2577 7534h-201l-195-418q-22-48-45-79.5t-49.5-50-58-26.5-70.5-8h-84v582h-178v-1307h350q114 0 196 25t134.5 70 77 108.5 24.5 140.5q0 61-18 115.5t-53.5 99-88 77-120.5 48.5q55 19 93.5 66.5t78.5 126.5zm-285-948q0-105-65.5-157t-184.5-52h-168v432h144q63 0 113.5-14.5t86-43 55-70 19.5-95.5z" />
    <circle cx="2577" cy="7534" r="50" fill="red"/>

  </g>
</svg>
