<svg width="1126" height="1907" xmlns="http://www.w3.org/2000/svg">
  <rect id="rect" x="0" y="0" width="1126" height="1307" fill="#68217a"/>
  <g transform="rotate(180 563 653) scale(-1, 1) translate(-1126, 0)">
    <path id="A" d="M1116 0h-194l-91 285h-544l-92 -285h-185l434 1307h244zM780 444l-221 699l-221 -699h442z" />
    <path id="B" d="M1016 391q0 -94 -36.5 -166.5t-104 -122.5t-163 -76t-212.5 -26h-342v1307h374q437 0 437 -318q0 -106 -50.5 -182t-164.5 -113q53 -10 100.5 -34t83.5 -62t57 -90t21 -117zM784 965q0 40 -12 75.5t-42 61t-81 40.5t-129 15h-184v-409h178q61 0 110.5 13t85 40t55 67.5t19.5 96.5zM827 385q0 50 -21 90t-61 67.5t-97.5 42.5t-129.5 15h-182v-450h188q153 0 228 57t75 178z" />
    <path id="C" d="M995 49q-157 -65 -329 -65q-277 0 -425.5 165.5t-148.5 489.5q0 157 41 284t117 215.5t184 136.5t242 48q91 0 169 -15.5t150 -47.5v-175q-71 39 -147 59.5t-166 20.5q-92 0 -166.5 -34.5t-126.5 -100t-80 -160t-28 -215.5q0 -254 103 -383t302 -129q84 0 161 19.5t148 54.5v-168z" />
    <path id="D" d="M1053 668q0 -94 -14.5 -180t-46.5 -160t-83 -134.5t-125 -103.5t-172 -66.5t-223 -23.5h-280v1307h337q306 0 456.5 -157.5t150.5 -481.5zM866 655q0 139 -26 235t-79 155t-133 85.5t-188 26.5h-153v-1003h133q446 0 446 501z" />
    <path id="E" d="M944 0h-743v1307h743v-150h-565v-405h543v-150h-543v-450h565v-152z" />
    <path id="F" d="M942 1155h-555v-424h526v-149h-526v-582h-182v1307h737v-152z" />
    <path id="G" d="M1006 1083q-73 39 -150 60.5t-168 21.5q-104 0 -185 -37t-136.5 -104.5t-85 -162.5t-29.5 -210q0 -120 24 -215t75 -161t130.5 -101t190.5 -35q19 0 41 2t44 5.5t42.5 8.5t36.5 11v416h-267v147h443v-668q-41 -19 -86.5 -34t-93 -25t-94.5 -15t-91 -5q-134 0 -241.5 42t-183 124.5t-116 205.5t-40.5 285q0 161 45 288.5t126.5 216t196 135t252.5 46.5q88 0 167.5 -15.5t152.5 -49.5v-177z" />
    <path id="H" d="M1016 0h-178v600h-549v-600h-178v1307h178v-553h549v553h178v-1307z" />
    <path id="I" d="M473 1157h-301v150h782v-150h-301v-1005h301v-152h-782v152h301v1005z" />
    <path id="J" d="M877 1307v-908q0 -84 -25 -159.5t-76 -131.5t-128 -89t-181 -33q-39 0 -79.5 5.5t-78 15t-70.5 23t-57 29.5v179q62 -45 137.5 -71t149.5 -26q109 0 168 66.5t59 191.5v754h-497v154h678z" />
    <path id="K" d="M1047 0h-224l-489 641v-641h-178v1307h178v-607l479 607h211l-516 -621z" />
    <path id="L" d="M985 0h-752v1307h181v-1155h571v-152z" />
    <path id="M" d="M1077 0h-174l-26 815l-11 313l-61 -182l-193 -520h-123l-184 500l-61 202l-4 -327l-23 -801h-168l64 1307h211l176 -492l57 -166l55 166l185 492h217z" />
    <path id="N" d="M1008 0h-232l-381 815l-110 262v-659v-418h-166v1307h229l363 -772l131 -299v700v371h166v-1307z" />
    <path id="O" d="M1071 662q0 -176 -41.5 -304t-112 -211.5t-165 -124t-199.5 -40.5q-126 0 -219.5 45.5t-155 131.5t-91.5 209.5t-30 278.5q0 174 41 302t111.5 211.5t164.5 124t199 40.5q126 0 219.5 -46t155.5 -131.5t92.5 -208.5t30.5 -277zM886 649q0 115 -17.5 210.5t-56.5 164.5t-100.5 107t-148.5 38q-84 0 -144.5 -40.5t-99.5 -110t-58 -163t-19 -198.5q0 -116 18 -211.5t56.5 -164t99.5 -106.5t147 -38q84 0 145 40.5t100.5 110t58.5 162.5t19 199z" />
    <path id="P" d="M1016 907q0 -80 -30 -158.5t-93 -140.5t-161 -100.5t-234 -38.5h-162v-469h-178v1307h368q97 0 186 -21.5t156.5 -69.5t107.5 -124t40 -185zM831 899q0 126 -82.5 193t-230.5 67h-182v-538h166q158 0 243.5 69t85.5 209z" />
    <path id="Q" d="M467 -12q-104 15 -181 66t-128 134.5t-76 197t-25 251.5q0 178 41 308t111.5 214.5t164.5 125t199 40.5q126 0 219.5 -45.5t155.5 -131t92.5 -207t30.5 -273.5q0 -160 -34 -280.5t-93 -204.5t-139 -132t-172 -63q15 -88 70 -141.5t155 -53.5q48 0 94.5 16t94.5 54l79 -123q-66 -54 -136 -77t-144 -23q-80 0 -147 22t-116.5 65.5t-79.5 109t-36 151.5zM886 647q0 116 -17.5 211.5t-56.5 164t-100.5 106.5t-148.5 38q-84 0 -144.5 -40t-99.5 -108.5t-58 -160t-19 -194.5q0 -119 18 -215.5t56.5 -165.5t99.5 -106.5t147 -37.5q84 0 145 40t100.5 109t58.5 161.5t19 197.5z" />
    <path id="R" d="M1051 0h-201l-195 418q-22 48 -45 79.5t-49.5 50t-58 26.5t-70.5 8h-84v-582h-178v1307h350q114 0 196 -25t134.5 -70t77 -108.5t24.5 -140.5q0 -61 -18 -115.5t-53.5 -99t-88 -77t-120.5 -48.5q55 -19 93.5 -66.5t78.5 -126.5zM766 948q0 105 -65.5 157t-184.5 52h-168v-432h144q63 0 113.5 14.5t86 43t55 70t19.5 95.5z" />
    <path id="S" d="M997 354q0 -93 -38 -163t-106 -116.5t-163.5 -69.5t-210.5 -23q-52 0 -103.5 4t-99 10t-89.5 14t-76 17v172q75 -28 168.5 -44t212.5 -16q86 0 146.5 13.5t99 40t56 64.5t17.5 87q0 53 -29.5 90.5t-77.5 67t-109.5 54t-125.5 50.5t-125.5 56.5t-109.5 72t-77.5 97.5t-29.5 133q0 67 28 132t87 115.5t151.5 81.5t220.5 31q33 0 71.5 -3t78 -8.5t78 -12.5t71.5 -15v-160q-77 22 -154 33.5t-149 11.5q-153 0 -225 -51t-72 -137q0 -53 29.5 -91t77.5 -68t109.5 -54.5t125.5 -50.5t125.5 -57t109.5 -73.5t77.5 -99.5t29.5 -135z" />
    <path id="T" d="M1040 1155h-387v-1155h-180v1155h-387v152h954v-152z" />
    <path id="U" d="M1018 455q0 -108 -30.5 -195.5t-89.5 -149t-144.5 -95t-196.5 -33.5q-122 0 -207 32t-138.5 90.5t-78 140.5t-24.5 183v879h178v-865q0 -77 14.5 -135t47.5 -97t85.5 -59t128.5 -20q142 0 209.5 82t67.5 231v863h178v-852z" />
    <path id="V" d="M1122 1307l-444 -1307h-240l-434 1307h201l282 -881l80 -258l82 258l283 881h190z" />
    <path id="W" d="M1081 1307l-88 -1307h-231l-162 465l-45 149l-47 -161l-150 -453h-223l-90 1307h168l51 -889l15 -244l63 207l158 485h123l182 -520l61 -172l4 180l52 953h159z" />
    <path id="X" d="M1102 0h-225l-318 528l-319 -528h-222l435 668l-400 639h211l299 -492l301 492h205l-401 -631z" />
    <path id="Y" d="M1126 1307l-473 -840v-467h-180v471l-473 836h215l260 -478l96 -192l88 174l263 496h204z" />
    <path id="Z" d="M1001 1167l-667 -1001h680v-166h-903v133l671 1012h-653v162h872v-140z" />
  </g>
</svg>
