<svg width="818" height="775" version="1.1" xmlns="http://www.w3.org/2000/svg">
  <rect x="0" y="0" width="818" height="775" fill="#68217a"/>
  <g stroke="#fbff00">

    <line x1="10" y1="10" x2="10" y2="765"/>
    <line x1="143" y1="10" x2="143" y2="765"/>
    <line x1="276" y1="10" x2="276" y2="765"/>
    <line x1="409" y1="10" x2="409" y2="765"/>
    <line x1="542" y1="10" x2="542" y2="765"/>
    <line x1="675" y1="10" x2="675" y2="765"/>
    <line x1="808" y1="10" x2="808" y2="765"/>
    <line x1="10" y1="10" x2="808" y2="10"/>
    <line x1="10" y1="161" x2="808" y2="161"/>
    <line x1="10" y1="312" x2="808" y2="312"/>
    <line x1="10" y1="463" x2="808" y2="463"/>
    <line x1="10" y1="614" x2="808" y2="614"/>
    <line x1="10" y1="765" x2="808" y2="765"/>

    <path d="m118 151h-75.2v-130.7h18.1v115.5h57.1z"/>
    <circle cx="118" cy="151" r="5" fill="red"/>
    <path d="m260 85q0 17.6-4.15 30.4t-11.2 21.15-16.5 12.4-19.95 4.05q-12.6 0-21.95-4.55t-15.5-13.15-9.15-20.95-3-27.85q0-17.4 4.1-30.2t11.15-21.15 16.45-12.4 19.9-4.05q12.6 0 21.95 4.6t15.55 13.15 9.25 20.85 3.05 27.7zm-18.5 1.3q0-11.5-1.75-21.05t-5.65-16.45-10.05-10.7-14.85-3.8q-8.4 0-14.45 4.05t-9.95 11-5.8 16.3-1.9 19.85q0 11.6 1.8 21.15t5.65 16.4 9.95 10.65 14.7 3.8q8.4 0 14.5-4.05t10.05-11 5.85-16.25 1.9-19.9z"/>
    <circle cx="260" cy="85" r="5" fill="red"/>
    <path d="m342 119q3.4 0 6.45 1.3t5.3 3.6 3.55 5.35 1.3 6.55q0 3.4-1.3 6.4t-3.55 5.25-5.3 3.55-6.45 1.3q-3.5 0-6.5-1.3t-5.25-3.55-3.55-5.25-1.3-6.4q0-3.5 1.3-6.55t3.55-5.35 5.25-3.6 6.5-1.3z"/>
    <circle cx="342" cy="119" r="5" fill="red"/>
    <path d="m519 146q-15.7 6.5-32.9 6.5-27.7 0-42.55-16.55t-14.85-48.95q0-15.7 4.1-28.4t11.7-21.55 18.4-13.65 24.2-4.8q9.1 0 16.9 1.55t15 4.75v17.5q-7.1-3.9-14.7-5.95t-16.6-2.05q-9.2 0-16.65 3.45t-12.65 10-8 16-2.8 21.55q0 25.4 10.3 38.3t30.2 12.9q8.4 0 16.1-1.95t14.8-5.45z"/>
    <circle cx="519" cy="146" r="5" fill="red"/>
    <path d="m657 151h-22.4l-48.9-64.1v64.1h-17.8v-130.7h17.8v60.7l47.9-60.7h21.1l-51.6 62.1z"/>
    <circle cx="657" cy="151" r="5" fill="red"/>
    <path d="m787 105q0 10.8-3.05 19.55t-8.95 14.9-14.45 9.5-19.65 3.35q-12.2 0-20.7-3.2t-13.85-9.05-7.8-14.05-2.45-18.3v-87.9h17.8v86.5q0 7.7 1.45 13.5t4.75 9.7 8.55 5.9 12.85 2q14.2 0 20.95-8.2t6.75-23.1v-86.3h17.8z"/>
    <circle cx="787" cy="105" r="5" fill="red"/>
    <path d="m67 186h-30.1v-15h78.2v15h-30.1v100.5h30.1v15.2h-78.2v-15.2h30.1z"/>
    <circle cx="67" cy="186" r="5" fill="red"/>
    <path d="m265 302h-19.4l-9.1-28.5h-54.4l-9.2 28.5h-18.5l43.4-130.7h24.4zm-33.6-44.4-22.1-69.9-22.1 69.9z"/>
    <circle cx="265" cy="302" r="5" fill="red"/>
    <path d="m390 186h-38.7v115.5h-18v-115.5h-38.7v-15.2h95.4z"/>
    <circle cx="390" cy="186" r="5" fill="red"/>
    <path d="m531 171-44.4 130.7h-24l-43.4-130.7h20.1l28.2 88.1 8 25.8 8.2-25.8 28.3-88.1z"/>
    <circle cx="531" cy="171" r="5" fill="red"/>
    <path d="m657 302h-20.1l-19.5-41.8q-2.2-4.8-4.5-7.95t-4.95-5-5.8-2.65-7.05-0.8h-8.4v58.2h-17.8v-130.7h35q11.4 0 19.6 2.5t13.45 7 7.7 10.85 2.45 14.05q0 6.1-1.8 11.55t-5.35 9.9-8.8 7.7-12.05 4.85q5.5 1.9 9.35 6.65t7.85 12.65zm-28.5-94.8q0-10.5-6.55-15.7t-18.45-5.2h-16.8v43.2h14.4q6.3 0 11.35-1.45t8.6-4.3 5.5-7 1.95-9.55z"/>
    <circle cx="657" cy="302" r="5" fill="red"/>
    <path d="m773 171v90.8q0 8.4-2.5 15.95t-7.6 13.15-12.8 8.9-18.1 3.3q-3.9 0-7.95-0.55t-7.8-1.5-7.05-2.3-5.7-2.95v-17.9q6.2 4.5 13.75 7.1t14.95 2.6q10.9 0 16.8-6.65t5.9-19.15v-75.4h-49.7v-15.4z"/>
    <circle cx="773" cy="171" r="5" fill="red"/>
    <path d="m128 453h-17.4l-2.6-81.5-1.1-31.3-6.1 18.2-19.3 52h-12.3l-18.4-50-6.1-20.2-0.4 32.7-2.3 80.1h-16.8l6.4-130.7h21.1l17.6 49.2 5.7 16.6 5.5-16.6 18.5-49.2h21.7z"/>
    <circle cx="128" cy="453" r="5" fill="red"/>
    <path d="m255 453h-17.8v-60h-54.9v60h-17.8v-130.7h17.8v55.3h54.9v-55.3h17.8z"/>
    <circle cx="255" cy="453" r="5" fill="red"/>
    <path d="m399 322-47.3 84v46.7h-18v-47.1l-47.3-83.6h21.5l26 47.8 9.6 19.2 8.8-17.4 26.3-49.6z"/>
    <circle cx="399" cy="322" r="5" fill="red"/>
    <path d="m524 386q0 9.4-1.45 18t-4.65 16-8.3 13.45-12.5 10.35-17.2 6.65-22.3 2.35h-28v-130.7h33.7q30.6 0 45.65 15.75t15.05 48.15zm-18.7 1.3q0-13.9-2.6-23.5t-7.9-15.5-13.3-8.55-18.8-2.65h-15.3v100.3h13.3q44.6 0 44.6-50.1z"/>
    <circle cx="524" cy="386" r="5" fill="red"/>
    <path d="m646 337h-55.5v42.4h52.6v14.9h-52.6v58.2h-18.2v-130.7h73.7z"/>
    <circle cx="646" cy="337" r="5" fill="red"/>
    <path d="m732 454q-10.4-1.5-18.1-6.6t-12.8-13.45-7.6-19.7-2.5-25.15q0-17.8 4.1-30.8t11.15-21.45 16.45-12.5 19.9-4.05q12.6 0 21.95 4.55t15.55 13.1 9.25 20.7 3.05 27.35q0 16-3.4 28.05t-9.3 20.45-13.9 13.2-17.2 6.3q1.5 8.8 7 14.15t15.5 5.35q4.8 0 9.45-1.6t9.45-5.4l7.9 12.3q-6.6 5.4-13.6 7.7t-14.4 2.3q-8 0-14.7-2.2t-11.65-6.55-7.95-10.9-3.6-15.15zm41.9-65.9q0-11.6-1.75-21.15t-5.65-16.4-10.05-10.65-14.85-3.8q-8.4 0-14.45 4t-9.95 10.85-5.8 16-1.9 19.45q0 11.9 1.8 21.55t5.65 16.55 9.95 10.65 14.7 3.75q8.4 0 14.5-4t10.05-10.9 5.85-16.15 1.9-19.75z"/>
    <circle cx="732" cy="454" r="5" fill="red"/>
    <path d="m120 568q0 9.3-3.8 16.3t-10.6 11.65-16.35 6.95-21.05 2.3q-5.2 0-10.35-0.4t-9.9-1-8.95-1.4-7.6-1.7v-17.2q7.5 2.8 16.85 4.4t21.25 1.6q8.6 0 14.65-1.35t9.9-4 5.6-6.45 1.75-8.7q0-5.3-2.95-9.05t-7.75-6.7-10.95-5.4-12.55-5.05-12.55-5.65-10.95-7.2-7.75-9.75-2.95-13.3q0-6.7 2.8-13.2t8.7-11.55 15.15-8.15 22.05-3.1q3.3 0 7.15 0.3t7.8 0.85 7.8 1.25 7.15 1.5v16q-7.7-2.2-15.4-3.35t-14.9-1.15q-15.3 0-22.5 5.1t-7.2 13.7q0 5.3 2.95 9.1t7.75 6.8 10.95 5.45 12.55 5.05 12.55 5.7 10.95 7.35 7.75 9.95 2.95 13.5z"/>
    <circle cx="120" cy="568" r="5" fill="red"/>
    <path d="m253 487-66.7 100.1h68v16.6h-90.3v-13.3l67.1-101.2h-65.3v-16.2h87.2z"/>
    <circle cx="253" cy="487" r="5" fill="red"/>
    <path d="m396 604h-22.5l-31.8-52.8-31.9 52.8h-22.2l43.5-66.8-40-63.9h21.1l29.9 49.2 30.1-49.2h20.5l-40.1 63.1z"/>
    <circle cx="396" cy="604" r="5" fill="red"/>
    <path d="m521 565q0 9.4-3.65 16.65t-10.4 12.25-16.3 7.6-21.25 2.6h-34.2v-130.7h37.4q43.7 0 43.7 31.8 0 10.6-5.05 18.2t-16.45 11.3q5.3 1 10.05 3.4t8.35 6.2 5.7 9 2.1 11.7zm-23.2-57.4q0-4-1.2-7.55t-4.2-6.1-8.1-4.05-12.9-1.5h-18.4v40.9h17.8q6.1 0 11.05-1.3t8.5-4 5.5-6.75 1.95-9.65zm4.3 58q0-5-2.1-9t-6.1-6.75-9.75-4.25-12.95-1.5h-18.2v45h18.8q15.3 0 22.8-5.7t7.5-17.8z"/>
    <circle cx="521" cy="565" r="5" fill="red"/>
    <path d="m653 604h-23.2l-38.1-81.5-11-26.2v107.7h-16.6v-130.7h22.9l36.3 77.2 13.1 29.9v-107.1h16.6z"/>
    <circle cx="653" cy="604" r="5" fill="red"/>
    <path d="m793 473-8.8 130.7h-23.1l-16.2-46.5-4.5-14.9-4.7 16.1-15 45.3h-22.3l-9-130.7h16.8l5.1 88.9 1.5 24.4 6.3-20.7 15.8-48.5h12.3l18.2 52 6.1 17.2 0.4-18 5.2-95.3z"/>
    <circle cx="793" cy="473" r="5" fill="red"/>
    <path d="m121 646q-7.3-3.9-15-6.05t-16.8-2.15q-10.4 0-18.5 3.7t-13.65 10.45-8.5 16.25-2.95 21q0 12 2.4 21.5t7.5 16.1 13.05 10.1 19.05 3.5q1.9 0 4.1-0.2t4.4-0.55 4.25-0.85 3.65-1.1v-41.6h-26.7v-14.7h44.3v66.8q-4.1 1.9-8.65 3.4t-9.3 2.5-9.45 1.5-9.1 0.5q-13.4 0-24.15-4.2t-18.3-12.45-11.6-20.55-4.05-28.5q0-16.1 4.5-28.85t12.65-21.6 19.6-13.5 25.25-4.65q8.8 0 16.75 1.55t15.25 4.95z"/>
    <circle cx="121" cy="646" r="5" fill="red"/>
    <path d="m247 755h-74.3v-130.7h74.3v15h-56.5v40.5h54.3v15h-54.3v45h56.5z"/>
    <circle cx="247" cy="755" r="5" fill="red"/>
    <path d="m388 664q0 8-3 15.85t-9.3 14.05-16.1 10.05-23.4 3.85h-16.2v46.9h-17.8v-130.7h36.8q9.7 0 18.6 2.15t15.65 6.95 10.75 12.4 4 18.5zm-18.5 0.8q0-12.6-8.25-19.3t-23.05-6.7h-18.2v53.8h16.6q15.8 0 24.35-6.9t8.55-20.9z"/>
    <circle cx="388" cy="664" r="5" fill="red"/>

  </g>
</svg>
