<svg viewBox="0 0 888 888" xmlns="http://www.w3.org/2000/svg">
  <rect id="bg" x="0" y="0" width="888" height="888" fill="#68217a"/>
  <g id="tx" fill="#fff">
    <path id="D" d="m527 443q0 9.4-1.45 18t-4.65 16-8.3 13.45-12.5 10.35-17.2 6.65-22.3 2.35h-28v-130.7h33.7q30.6 0 45.65 15.75t15.05 48.15zm-18.7 1.3q0-13.9-2.6-23.5t-7.9-15.5-13.3-8.55-18.8-2.65h-15.3v100.3h13.3q44.6 0 44.6-50.1z"/>
    <path id="O" d="m642 444q0 17.6-4.15 30.4t-11.2 21.15-16.5 12.4-19.95 4.05q-12.6 0-21.95-4.55t-15.5-13.15-9.15-20.95-3-27.85q0-17.4 4.1-30.2t11.15-21.15 16.45-12.4 19.9-4.05q12.6 0 21.95 4.6t15.55 13.15 9.25 20.85 3.05 27.7zm-18.5 1.3q0-11.5-1.75-21.05t-5.65-16.45-10.05-10.7-14.85-3.8q-8.4 0-14.45 4.05t-9.95 11-5.8 16.3-1.9 19.85q0 11.6 1.8 21.15t5.65 16.4 9.95 10.65 14.7 3.8q8.4 0 14.5-4.05t10.05-11 5.85-16.25 1.9-19.9z"/>
    <path id="T" d="m752 394h-38.7v115.5h-18v-115.5h-38.7v-15.2h95.4z"/>
    <path id="N" d="m523 719h-23.2l-38.1-81.5-11-26.2v107.7h-16.6v-130.7h22.9l36.3 77.2 13.1 29.9v-107.1h16.6z"/>
    <path id="E" d="m629 719h-74.3v-130.7h74.3v15h-56.5v40.5h54.3v15h-54.3v45h56.5z"/>
    <path id="T" d="m752 603h-38.7v115.5h-18v-115.5h-38.7v-15.2h95.4z"/>
  </g>

  <g id="bc" font-family="Times New Roman" font-size="125" fill="#cf18fd">
    <text x="426" y="341">CLUB</text>
    <text x="388" y="614" transform="rotate(270 444 675)">BOOK</text>
    <path d="m394 318c-3.3175-26.85 3.3802-76.318-1.0526-96.794-4.0098 4.0568-10.021 6.1108-15.781 8.4165 3.2695 14.492-8.3496 14.096-12.625 21.042 4.4599 26.926-5.9375 52.33-2.1052 74.7-25.243-2.9875-46.529 4.0746-72.596 1.0526-5.8299 9.2518-15.061 15.101-18.939 26.302 29.975 2.3986 62.42-3.2288 88.378 0 6.3698 0.79257 11.708 3.9827 17.886 3.1567 8.7193-1.1664 18.779-10.579 19.991-19.991 0.70068-5.4446-2.3088-11.024-3.1556-17.886zm-24.069 6.0826c-0.48139-3.4867-1.7491-13.34-1.7491-20.505 0-4.133 0.88132-10.503 1.8117-17.245 1.0714-7.7482 2.1793-15.759 2.0509-21.142-0.19631-8.1345-1.7606-14.196-2.338-16.181 0.90012-0.56284 1.8869-1.0369 2.834-1.5507 0.46363 1.5235 2.195 7.7398 2.3996 16.301 0.12844 5.3235-0.97531 13.306-2.0425 21.026-0.93562 6.7676-1.8201 13.161-1.8201 17.345 0 7.6354 1.4264 18.278 1.8347 21.153-1.0818 0.18065-2.0425 0.4793-2.9813 0.80092zm-3.2862-71.312c0.40308-1.5194 1.3136-2.5302 2.4289-3.3353 0.60879 2.1344 2.0592 7.9758 2.2451 15.774 0.12844 5.3235-0.97635 13.306-2.0425 21.024-0.93562 6.7676-1.8201 13.161-1.8201 17.345 0 7.3117 1.3084 17.382 1.7762 20.748-1.1539 0.40516-2.3077 0.81136-3.6402 1.04-4.3732-24.311 6.2988-47.413 1.0526-72.596zm-3.1567 75.751c-0.36339 0.56075-0.70172 1.1466-1.0035 1.77-2.6659-0.41978-8.1335-1.1403-15.113-1.3084-5.242-0.12531-12.91 0.70903-20.331 1.5173-6.9577 0.75811-13.534 1.4755-17.992 1.4181-7.6176-0.0919-15.536-0.89386-18.828-1.2646 0.4062-0.69441 0.67457-1.4076 0.67248-2.1323 23.898 4.3878 48.758-4.3054 72.596 0zm-1.3011 2.456c-0.35817 0.86462-0.63593 1.8076-0.79257 2.8737-2.8518-0.44275-8.3214-1.1466-15.049-1.3084-5.4248-0.1274-13.447 0.72051-21.199 1.5434-6.5828 0.69859-12.798 1.3596-16.889 1.3596-7.2031 0-17.077-1.2186-20.501-1.6718 0.65682-0.76855 1.4139-1.5883 2.0216-2.4414 3.0575 0.34981 11.32 1.2144 19.263 1.3105 0.16081 2e-3 0.3258 3e-3 0.49287 3e-3 4.4891 0 10.857-0.69336 17.586-1.4254 7.3963-0.80509 15.043-1.6373 20.234-1.512 6.7791 0.16082 12.128 0.84896 14.834 1.2687zm-74.45 7.013c-2.0947-0.89386-1.6415-2.1219-0.52003-3.5587 2.9322 0.39472 13.451 1.7366 21.041 1.7366 4.1278 0 10.364-0.66204 16.965-1.3627 7.7294-0.82076 15.72-1.6676 21.107-1.5392 6.7206 0.16186 12.17 0.86776 14.989 1.3053-0.0919 1.0254-0.0877 2.1459 0.0668 3.4188-23.916 0.0647-53.216-0.0888-73.648 0zm89.429-1.0526h-12.625c-0.68815-8.4018 4.0788-11.351 12.625-10.521zm0-13.677c-1.3439-0.19004-2.4978-0.19109-3.5378-0.0762-0.40307-2.8539-1.8264-13.461-1.8264-21.055 0-4.133 0.88028-10.503 1.8128-17.245 1.0703-7.7482 2.1783-15.759 2.0488-21.141-0.2172-8.971-2.0916-15.408-2.479-16.648 1.1904-0.69859 2.2618-1.5183 2.928-2.7411 2.456 24.199 0.354 52.955 1.0536 78.907z"/>
  </g>

  <g id="dg" fill-opacity="0" stroke-width="2">
    <!-- Rule of thirds -->
    <line x1="296" y1="0" x2="296" y2="888" stroke="lime"/>
    <line x1="592" y1="0" x2="592" y2="888" stroke="lime"/>
    <line x1="0" y1="296" x2="888" y2="296" stroke="lime"/>
    <line x1="0" y1="592" x2="888" y2="592" stroke="lime"/>
    <!-- Golden rectangle -->
    <g stroke-dasharray="5" stroke="#fbff00">
      <rect x="422" y="170" width="339" height="549"/>
      <rect x="212" y="170" width="549" height="549"/>
      <rect x="212" y="170" width="210" height="210"/>
      <rect x="422" y="380" width="339" height="339"/>
      <rect x="266" y="224" width="130" height="130"/>
    </g>
    <line x1="0" y1="341" x2="888" y2="341" stroke="red"/>
    <line x1="383" y1="0" x2="383" y2="888" stroke="red"/>
    <line x1="422" y1="380" x2="761" y2="719" stroke="red"/>
    <line x1="42" y1="0" x2="761" y2="719" stroke="red"/>
    <!-- Social circle -->
    <circle cx="444" cy="444" r="444" stroke="coral" stroke-dasharray="10"/>
    <!-- Centers -->
    <circle cx="444" cy="444" r="8" fill-opacity="1" fill="red"/>
    <circle cx="592" cy="170" r="8" fill-opacity="1" fill="red"/>
    <circle cx="592" cy="719" r="8" fill-opacity="1" fill="red"/>
    <circle cx="42" cy="0" r="8" fill-opacity="1" fill="red"/>
  </g>
  <text x="64" y="16" font-size="16" fill="white">X = 42</text>

</svg>
