<svg width="800" height="800" version="1.1" xmlns="http://www.w3.org/2000/svg">
  <rect x="0" y="0" width="800" height="800" fill="#68217a"/>
  <g fill="#fff">
    <path d="m150,150h-16.5 a14,14 0 1,0 0,29h16.5z"/>
    <path d="m150,189h-52.5 a14,14 0 1,0 0,29h52.5z"/>
    <path d="m150,227h-22.5 a14,14 0 1,0 0,29h22.5z"/>
    <path d="m150,266h-56.5 a14,14 0 1,0 0,29h56.5z"/>
    <path d="m150,305h-85.5 a14,14 0 1,0 0,29h85.5z"/>
    <path d="m150,344h-44.5 a14,14 0 1,0 0,29h44.5z"/>
    <path d="m150,382h-4.5 a14,14 0 1,0 0,29h4.5z"/>
    <path d="m150,421h-32.5 a14,14 0 1,0 0,29h32.5z"/>
    <path d="m150,460h-58.5 a14,14 0 1,0 0,29h58.5z"/>
  </g>
  <g fill="#cf18fd">
    <path d="m160,150h16.5 a14,14 0 1,1 0,29h-16.5z"/>
    <path d="m160,189h52.5 a14,14 0 1,1 0,29h-52.5z"/>
    <path d="m160,227h22.5 a14,14 0 1,1 0,29h-22.5z"/>
    <path d="m160,266h56.5 a14,14 0 1,1 0,29h-56.5z"/>
    <path d="m160,305h85.5 a14,14 0 1,1 0,29h-85.5z"/>
    <path d="m160,344h44.5 a14,14 0 1,1 0,29h-44.5z"/>
    <path d="m160,382h4.5 a14,14 0 1,1 0,29h-4.5z"/>
    <path d="m160,421h32.5 a14,14 0 1,1 0,29h-32.5z"/>
    <path d="m160,460h58.5 a14,14 0 1,1 0,29h-58.5z"/>
  </g>
  <rect x="50" y="150" width="210" height="339" stroke-width="1" stroke="black" fill-opacity="0"/>
</svg>
