<svg width="8844" height="8844" xmlns="http://www.w3.org/2000/svg">
  <rect x="0" y="0" width="8844" height="8844" fill="#68217a" />
  <g fill="#fff">
    <path id="S" d="m5204 2641q0 93-38 163t-106 116.5-163.5 69.5-210.5 23q-52 0-103.5-4t-99-10-89.5-14-76-17v-172q75 28 168.5 44t212.5 16q86 0 146.5-13.5t99-40 56-64.5 17.5-87q0-53-29.5-90.5t-77.5-67-109.5-54-125.5-50.5-125.5-56.5-109.5-72-77.5-97.5-29.5-133q0-67 28-132t87-115.5 151.5-81.5 220.5-31q33 0 71.5 3t78 8.5 78 12.5 71.5 15v160q-77-22-154-33.5t-149-11.5q-153 0-225 51t-72 137q0 53 29.5 91t77.5 68 109.5 54.5 125.5 50.5 125.5 57 109.5 73.5 77.5 99.5 29.5 135z" />
    <path id="P" d="m6349 2088q0 80-30 158.5t-93 140.5-161 100.5-234 38.5h-162v469h-178v-1307h368q97 0 186 21.5t156.5 69.5 107.5 124 40 185zm-185 8q0-126-82.5-193t-230.5-67h-182v538h166q158 0 243.5-69t85.5-209z" />
    <path id="B" d="m7475 2604q0 94-36.5 166.5t-104 122.5-163 76-212.5 26h-342v-1307h374q437 0 437 318 0 106-50.5 182t-164.5 113q53 10 100.5 34t83.5 62 57 90 21 117zm-232-574q0-40-12-75.5t-42-61-81-40.5-129-15h-184v409h178q61 0 110.5-13t85-40 55-67.5 19.5-96.5zm43 580q0-50-21-90t-61-67.5-97.5-42.5-129.5-15h-182v450h188q153 0 228-57t75-178z" />
    <path id="D" d="m5260 4406q0 94-14.5 180t-46.5 160-83 134.5-125 103.5-172 66.5-223 23.5h-280v-1307h337q306 0 456.5 157.5t150.5 481.5zm-187 13q0-139-26-235t-79-155-133-85.5-188-26.5h-153v1003h133q446 0 446-501z" />
    <path id="O" d="m6404 4412q0 176-41.5 304t-112 211.5-165 124-199.5 40.5q-126 0-219.5-45.5t-155-131.5-91.5-209.5-30-278.5q0-174 41-302t111.5-211.5 164.5-124 199-40.5q126 0 219.5 46t155.5 131.5 92.5 208.5 30.5 277zm-185 13q0-115-17.5-210.5t-56.5-164.5-100.5-107-148.5-38q-84 0-144.5 40.5t-99.5 110-58 163-19 198.5q0 116 18 211.5t56.5 164 99.5 106.5 147 38q84 0 145-40.5t100.5-110 58.5-162.5 19-199z" />
    <path id="T" d="m7499 3919h-387v1155h-180v-1155h-387v-152h954z" />
    <path id="N" d="m5215 7154h-232l-381-815-110-262v1077h-166v-1307h229l363 772 131 299v-1071h166z" />
    <path id="E" d="m6277 7154h-743v-1307h743v150h-565v405h543v150h-543v450h565z" />
    <path id="T" d="m7499 5999h-387v1155h-180v-1155h-387v-152h954z" />
  </g>
  <g id="diag" fill-opacity="0" stroke-width="20">
     <!-- Rule of thirds -->
    <line x1="0" y1="2947.868" x2="8843.604" y2="2947.868" stroke="lime" />
    <line x1="0" y1="5895.736" x2="8843.604" y2="5895.736" stroke="lime" />
    <line x1="2947.868" y1="0" x2="2947.868" y2="8843.604" stroke="lime" />
    <line x1="5895.736" y1="0" x2="5895.736" y2="8843.604" stroke="lime" />
    <!-- Golden rectangle -->
    <rect x="4206.736" y="1689" width="3378" height="5465.604" stroke="#fbff00"/>
    <!-- Social circle -->
    <circle cx="4421.802" cy="4421.802" r="4421.802" stroke="coral" stroke-dasharray="100" />
    <!-- Centers -->
    <circle cx="4421.802" cy="4421.802" r="100" fill="red" fill-opacity="1"/>
    <circle cx="5895.736" cy="1689" r="100" fill="red" fill-opacity="1"/>
    <circle cx="5895.736" cy="7154.604" r="100" fill="red" fill-opacity="1"/>
  </g>
</svg>
